<?xml version="1.0" standalone="no"?>
<!DOCTYPE svg PUBLIC "-//W3C//DTD SVG 20010904//EN"
 "http://www.w3.org/TR/2001/REC-SVG-20010904/DTD/svg10.dtd">
<svg version="1.0" xmlns="http://www.w3.org/2000/svg"
 width="648.000000pt" height="648.000000pt" viewBox="0 0 648.000000 648.000000"
 preserveAspectRatio="xMidYMid meet">
<metadata>
Created by potrace 1.11, written by Peter Selinger 2001-2013
</metadata>
<g transform="translate(0.000000,648.000000) scale(0.100000,-0.100000)"
fill="#000000" stroke="none">
<path d="M410 4583 c0 -1210 4 -1938 10 -2008 99 -1064 794 -1986 1792 -2375
336 -131 655 -190 1028 -190 647 0 1203 187 1728 580 141 105 379 335 486 470
119 149 246 350 331 525 145 294 210 501 268 850 21 130 21 137 24 2088 l4
1957 -2836 0 -2835 0 0 -1897z m2575 1409 c72 -211 -23 -384 -242 -440 l-70
-18 34 -39 c19 -22 48 -69 66 -104 30 -61 32 -73 32 -166 0 -95 -2 -103 -34
-163 -111 -205 -351 -257 -540 -118 -41 30 -91 89 -91 107 0 2 27 2 61 1 148
-9 269 101 269 245 0 208 -232 382 -535 398 l-90 5 60 -21 c124 -44 216 -128
251 -232 21 -64 16 -172 -11 -213 l-19 -29 -8 54 c-21 139 -134 247 -300 286
-214 50 -458 -41 -603 -226 -25 -31 -45 -60 -45 -63 0 -4 12 0 28 7 51 26 133
40 213 35 151 -9 284 -102 352 -246 40 -85 50 -215 22 -288 -34 -89 -93 -134
-175 -134 -191 0 -249 262 -76 341 50 23 95 24 143 4 l37 -16 -24 26 c-13 14
-54 40 -89 58 -61 30 -73 32 -166 32 -95 0 -103 -2 -163 -34 -125 -68 -193
-176 -200 -320 -16 -304 198 -537 563 -612 110 -23 231 -24 333 -3 104 21 280
108 246 121 -44 16 -106 68 -129 107 -76 130 -21 297 117 356 103 44 256 6
336 -85 189 -215 168 -666 -47 -990 -146 -222 -367 -400 -831 -670 -243 -142
-344 -211 -419 -289 -65 -69 -89 -113 -100 -186 l-7 -45 -23 44 c-61 117 -27
274 94 431 62 80 201 209 292 270 67 45 73 51 43 45 -19 -4 -69 -7 -110 -7
-135 2 -261 49 -351 130 -61 54 -88 109 -89 173 0 38 -5 50 -31 75 -82 76 -92
228 -22 306 15 17 18 15 47 -37 75 -134 180 -231 332 -305 138 -68 213 -84
409 -84 147 -1 181 2 253 22 167 45 320 139 408 250 46 58 118 194 112 212 -2
6 -19 -10 -38 -35 -40 -52 -133 -126 -200 -160 -25 -13 -79 -34 -120 -47 -66
-20 -93 -23 -235 -22 -130 1 -175 5 -237 22 -398 109 -698 434 -774 839 -24
131 -15 364 19 495 99 374 372 651 732 744 112 28 180 31 615 26 270 -3 372 8
482 53 87 36 161 95 194 158 19 35 28 29 49 -31z m580 14 c57 -90 173 -153
332 -181 94 -17 402 -21 608 -9 204 12 415 -26 545 -98 75 -42 122 -78 213
-167 42 -42 77 -72 77 -68 0 4 -10 42 -22 84 -31 111 -31 250 0 318 40 86 92
125 168 125 73 0 124 -54 124 -133 0 -75 -68 -133 -147 -125 l-28 3 1 -110 c0
-129 15 -201 90 -445 77 -250 87 -313 81 -495 -8 -228 -55 -376 -176 -560
-140 -212 -358 -368 -613 -437 -70 -19 -108 -22 -243 -22 -147 0 -167 2 -240
27 -135 45 -248 123 -319 222 -22 30 -42 53 -44 51 -1 -2 8 -32 23 -67 109
-269 378 -445 710 -466 182 -11 382 34 535 120 96 54 235 189 275 269 20 39
33 54 40 47 6 -6 10 -59 10 -122 0 -130 -19 -190 -86 -279 -109 -146 -361
-275 -548 -281 -34 -1 -61 -3 -61 -3 0 -1 64 -44 143 -97 297 -199 417 -341
417 -497 0 -67 -29 -151 -62 -178 -13 -10 -16 -5 -21 38 -8 70 -50 142 -120
206 -75 69 -148 118 -432 289 -260 156 -379 236 -504 340 -277 230 -427 494
-461 809 -18 169 5 306 71 422 120 211 410 234 512 40 28 -54 30 -165 4 -217
-23 -46 -80 -103 -118 -119 -16 -7 -29 -15 -29 -19 0 -12 104 -70 161 -90 176
-60 386 -52 571 23 212 86 361 256 389 444 26 178 -55 347 -206 425 -54 29
-69 32 -150 32 -105 0 -148 -17 -209 -85 -51 -57 -66 -97 -66 -178 0 -59 5
-80 34 -137 l33 -67 -26 7 c-52 13 -100 56 -131 118 -25 50 -30 72 -30 133 0
294 271 503 555 428 33 -8 79 -26 102 -40 23 -13 44 -24 48 -24 12 0 -59 95
-113 152 -146 154 -353 224 -542 184 -176 -37 -298 -146 -317 -281 -3 -25 -10
-45 -15 -45 -18 0 -40 76 -40 137 1 144 102 265 268 322 l59 20 -60 1 c-96 0
-240 -35 -331 -80 -189 -93 -280 -276 -210 -425 44 -96 136 -150 245 -143 34
1 61 0 61 -3 0 -19 -65 -90 -107 -117 -72 -47 -129 -64 -208 -64 -135 -1 -248
69 -316 194 -32 59 -34 69 -34 158 0 114 17 165 85 254 l47 63 -57 11 c-167
35 -280 158 -280 307 0 58 38 195 54 195 2 0 16 -20 31 -44z m-2468 -24 c94
-67 95 -248 3 -392 -46 -72 -170 -185 -170 -155 0 2 14 26 30 52 39 60 70 161
70 223 l0 47 -40 6 c-54 7 -89 31 -107 74 -25 60 5 140 61 164 35 15 120 5
153 -19z m2226 -1424 c4 -345 6 -392 25 -479 87 -387 307 -770 635 -1101 266
-267 607 -495 890 -594 44 -15 81 -33 83 -39 13 -33 -35 -400 -56 -435 -10
-17 -81 11 -270 106 -528 266 -989 709 -1205 1159 -29 61 -63 138 -75 173 -13
34 -25 60 -27 58 -7 -7 37 -174 69 -261 156 -426 518 -854 984 -1163 144 -95
174 -112 332 -192 99 -49 122 -65 117 -78 -16 -43 -91 -155 -139 -208 l-53
-58 -104 59 c-409 230 -755 545 -983 892 -70 107 -171 309 -201 403 -27 80
-29 46 -5 -51 113 -444 431 -883 890 -1228 63 -48 150 -109 193 -135 l79 -49
-49 -31 c-26 -17 -95 -54 -152 -83 l-104 -52 -60 47 c-88 69 -252 218 -330
301 -199 212 -375 488 -457 719 -13 34 -25 60 -27 58 -3 -2 5 -44 17 -93 85
-338 289 -672 594 -972 64 -63 115 -115 114 -116 -2 -1 -61 -23 -132 -50
l-129 -49 -35 40 c-72 82 -174 219 -229 307 -63 102 -151 283 -178 365 -28 88
-29 50 -1 -60 57 -218 163 -436 311 -638 22 -29 35 -55 29 -57 -25 -8 -138
-80 -187 -119 -97 -76 -161 -192 -173 -316 l-7 -68 -73 0 -74 0 0 38 c0 159
-112 323 -286 421 -43 25 -80 45 -82 46 -1 1 37 60 84 131 96 144 176 303 223
441 32 98 64 223 58 230 -2 2 -14 -25 -27 -59 -77 -213 -229 -464 -398 -657
l-39 -45 -129 49 c-71 27 -130 50 -132 51 -2 1 45 48 104 105 310 302 514 635
604 991 12 44 19 82 17 84 -2 2 -19 -36 -37 -84 -112 -287 -315 -577 -576
-819 -126 -118 -246 -213 -267 -213 -18 0 -208 96 -260 132 l-38 25 53 34
c480 304 850 716 1026 1139 48 116 119 360 99 340 -2 -3 -21 -48 -42 -100
-111 -282 -276 -521 -532 -770 -198 -194 -393 -340 -631 -474 l-104 -58 -30
28 c-64 61 -185 246 -167 256 2 2 58 29 123 61 687 336 1224 938 1366 1531 11
44 18 81 16 83 -2 2 -18 -35 -35 -81 -187 -495 -665 -996 -1231 -1290 -107
-55 -287 -136 -304 -136 -16 0 -51 201 -61 351 l-7 104 83 29 c169 59 428 211
629 372 117 94 349 328 450 454 231 289 383 590 451 891 20 84 22 132 26 467
l5 372 73 0 73 0 5 -382z m1825 345 c96 -71 96 -207 2 -269 -45 -30 -121 -34
-167 -10 -118 60 -119 224 -3 284 54 28 127 26 168 -5z"/>
</g>
</svg>
